<svg width="109" height="18" viewBox="0 0 109 18" fill="none" xmlns="http://www.w3.org/2000/svg">
<path d="M0.132 1.094H2.618C2.87467 1.094 3.08733 1.15633 3.256 1.281C3.432 1.39833 3.54933 1.55967 3.608 1.765L6.314 11.28C6.38 11.5147 6.43867 11.7713 6.49 12.05C6.54867 12.3213 6.60367 12.611 6.655 12.919C6.71367 12.611 6.776 12.3213 6.842 12.05C6.91533 11.7713 6.99233 11.5147 7.073 11.28L10.197 1.765C10.2557 1.59633 10.3693 1.44233 10.538 1.303C10.714 1.16367 10.9267 1.094 11.176 1.094H12.045C12.3017 1.094 12.5143 1.15633 12.683 1.281C12.8517 1.39833 12.969 1.55967 13.035 1.765L16.137 11.28C16.2983 11.7493 16.4377 12.27 16.555 12.842C16.6063 12.556 16.6577 12.281 16.709 12.017C16.7677 11.753 16.8263 11.5073 16.885 11.28L19.591 1.765C19.6423 1.58167 19.756 1.424 19.932 1.292C20.108 1.16 20.3207 1.094 20.57 1.094H22.891L17.952 17H15.279L11.803 6.132C11.759 5.99267 11.7113 5.84233 11.66 5.681C11.616 5.51967 11.572 5.34733 11.528 5.164C11.484 5.34733 11.4363 5.51967 11.385 5.681C11.341 5.84233 11.297 5.99267 11.253 6.132L7.744 17H5.071L0.132 1.094ZM36.2093 1.094V3.448H29.1583V7.859H34.7133V10.136H29.1583V14.635H36.2093V17H26.1773V1.094H36.2093ZM48.8321 3.987C48.7514 4.14833 48.6561 4.262 48.5461 4.328C48.4434 4.394 48.3188 4.427 48.1721 4.427C48.0254 4.427 47.8604 4.372 47.6771 4.262C47.4938 4.14467 47.2774 4.01633 47.0281 3.877C46.7788 3.73767 46.4854 3.613 46.1481 3.503C45.8181 3.38567 45.4258 3.327 44.9711 3.327C44.5604 3.327 44.2011 3.37833 43.8931 3.481C43.5924 3.57633 43.3358 3.712 43.1231 3.888C42.9178 4.064 42.7638 4.27667 42.6611 4.526C42.5584 4.768 42.5071 5.03567 42.5071 5.329C42.5071 5.703 42.6098 6.01467 42.8151 6.264C43.0278 6.51333 43.3064 6.726 43.6511 6.902C43.9958 7.078 44.3881 7.23567 44.8281 7.375C45.2681 7.51433 45.7154 7.66467 46.1701 7.826C46.6321 7.98 47.0831 8.16333 47.5231 8.376C47.9631 8.58133 48.3554 8.84533 48.7001 9.168C49.0448 9.48333 49.3198 9.872 49.5251 10.334C49.7378 10.796 49.8441 11.357 49.8441 12.017C49.8441 12.7357 49.7194 13.4103 49.4701 14.041C49.2281 14.6643 48.8688 15.2107 48.3921 15.68C47.9228 16.142 47.3471 16.5087 46.6651 16.78C45.9831 17.044 45.2021 17.176 44.3221 17.176C43.8161 17.176 43.3174 17.1247 42.8261 17.022C42.3348 16.9267 41.8618 16.7873 41.4071 16.604C40.9598 16.4207 40.5381 16.2007 40.1421 15.944C39.7534 15.6873 39.4051 15.4013 39.0971 15.086L39.9551 13.667C40.0358 13.5643 40.1311 13.48 40.2411 13.414C40.3584 13.3407 40.4868 13.304 40.6261 13.304C40.8094 13.304 41.0074 13.381 41.2201 13.535C41.4328 13.6817 41.6821 13.8467 41.9681 14.03C42.2614 14.2133 42.6024 14.382 42.9911 14.536C43.3871 14.6827 43.8601 14.756 44.4101 14.756C45.2534 14.756 45.9061 14.558 46.3681 14.162C46.8301 13.7587 47.0611 13.183 47.0611 12.435C47.0611 12.017 46.9548 11.676 46.7421 11.412C46.5368 11.148 46.2618 10.928 45.9171 10.752C45.5724 10.5687 45.1801 10.4147 44.7401 10.29C44.3001 10.1653 43.8528 10.0297 43.3981 9.883C42.9434 9.73633 42.4961 9.56033 42.0561 9.355C41.6161 9.14967 41.2238 8.882 40.8791 8.552C40.5344 8.222 40.2558 7.81133 40.0431 7.32C39.8378 6.82133 39.7351 6.209 39.7351 5.483C39.7351 4.90367 39.8488 4.339 40.0761 3.789C40.3108 3.239 40.6481 2.75133 41.0881 2.326C41.5354 1.90067 42.0818 1.55967 42.7271 1.303C43.3724 1.04633 44.1094 0.918 44.9381 0.918C45.8768 0.918 46.7421 1.06467 47.5341 1.358C48.3261 1.65133 49.0008 2.062 49.5581 2.59L48.8321 3.987ZM62.167 3.987C62.0863 4.14833 61.991 4.262 61.881 4.328C61.7783 4.394 61.6537 4.427 61.507 4.427C61.3603 4.427 61.1953 4.372 61.012 4.262C60.8287 4.14467 60.6123 4.01633 60.363 3.877C60.1137 3.73767 59.8203 3.613 59.483 3.503C59.153 3.38567 58.7607 3.327 58.306 3.327C57.8953 3.327 57.536 3.37833 57.228 3.481C56.9273 3.57633 56.6707 3.712 56.458 3.888C56.2527 4.064 56.0987 4.27667 55.996 4.526C55.8933 4.768 55.842 5.03567 55.842 5.329C55.842 5.703 55.9447 6.01467 56.15 6.264C56.3627 6.51333 56.6413 6.726 56.986 6.902C57.3307 7.078 57.723 7.23567 58.163 7.375C58.603 7.51433 59.0503 7.66467 59.505 7.826C59.967 7.98 60.418 8.16333 60.858 8.376C61.298 8.58133 61.6903 8.84533 62.035 9.168C62.3797 9.48333 62.6547 9.872 62.86 10.334C63.0727 10.796 63.179 11.357 63.179 12.017C63.179 12.7357 63.0543 13.4103 62.805 14.041C62.563 14.6643 62.2037 15.2107 61.727 15.68C61.2577 16.142 60.682 16.5087 60 16.78C59.318 17.044 58.537 17.176 57.657 17.176C57.151 17.176 56.6523 17.1247 56.161 17.022C55.6697 16.9267 55.1967 16.7873 54.742 16.604C54.2947 16.4207 53.873 16.2007 53.477 15.944C53.0883 15.6873 52.74 15.4013 52.432 15.086L53.29 13.667C53.3707 13.5643 53.466 13.48 53.576 13.414C53.6933 13.3407 53.8217 13.304 53.961 13.304C54.1443 13.304 54.3423 13.381 54.555 13.535C54.7677 13.6817 55.017 13.8467 55.303 14.03C55.5963 14.2133 55.9373 14.382 56.326 14.536C56.722 14.6827 57.195 14.756 57.745 14.756C58.5883 14.756 59.241 14.558 59.703 14.162C60.165 13.7587 60.396 13.183 60.396 12.435C60.396 12.017 60.2897 11.676 60.077 11.412C59.8717 11.148 59.5967 10.928 59.252 10.752C58.9073 10.5687 58.515 10.4147 58.075 10.29C57.635 10.1653 57.1877 10.0297 56.733 9.883C56.2783 9.73633 55.831 9.56033 55.391 9.355C54.951 9.14967 54.5587 8.882 54.214 8.552C53.8693 8.222 53.5907 7.81133 53.378 7.32C53.1727 6.82133 53.07 6.209 53.07 5.483C53.07 4.90367 53.1837 4.339 53.411 3.789C53.6457 3.239 53.983 2.75133 54.423 2.326C54.8703 1.90067 55.4167 1.55967 56.062 1.303C56.7073 1.04633 57.4443 0.918 58.273 0.918C59.2117 0.918 60.077 1.06467 60.869 1.358C61.661 1.65133 62.3357 2.062 62.893 2.59L62.167 3.987ZM80.9579 17H78.6699C78.4133 17 78.2006 16.9377 78.0319 16.813C77.8706 16.681 77.7533 16.5197 77.6799 16.329L76.4919 13.084H69.9029L68.7149 16.329C68.6563 16.4977 68.5389 16.6517 68.3629 16.791C68.1943 16.9303 67.9853 17 67.7359 17H65.4369L71.6849 1.094H74.7099L80.9579 17ZM70.6619 10.994H75.7329L73.7969 5.703C73.7089 5.46833 73.6099 5.19333 73.4999 4.878C73.3973 4.55533 73.2946 4.207 73.1919 3.833C73.0893 4.207 72.9866 4.55533 72.8839 4.878C72.7886 5.20067 72.6933 5.483 72.5979 5.725L70.6619 10.994ZM92.1221 10.4C92.2467 10.6347 92.3604 10.8803 92.4631 11.137C92.5731 11.3863 92.6794 11.6393 92.7821 11.896C92.8847 11.632 92.9911 11.3717 93.1011 11.115C93.2111 10.8583 93.3284 10.6127 93.4531 10.378L98.1611 1.567C98.2197 1.457 98.2784 1.369 98.3371 1.303C98.4031 1.237 98.4727 1.18933 98.5461 1.16C98.6267 1.13067 98.7147 1.11233 98.8101 1.105C98.9054 1.09767 99.0191 1.094 99.1511 1.094H101.384V17H98.7771V6.726C98.7771 6.53533 98.7807 6.32633 98.7881 6.099C98.8027 5.87167 98.8211 5.64067 98.8431 5.406L94.0361 14.426C93.9261 14.6313 93.7831 14.7927 93.6071 14.91C93.4311 15.02 93.2257 15.075 92.9911 15.075H92.5841C92.3494 15.075 92.1441 15.02 91.9681 14.91C91.7921 14.7927 91.6491 14.6313 91.5391 14.426L86.6661 5.373C86.6954 5.615 86.7137 5.85333 86.7211 6.088C86.7357 6.31533 86.7431 6.528 86.7431 6.726V17H84.1361V1.094H86.3691C86.5011 1.094 86.6147 1.09767 86.7101 1.105C86.8054 1.11233 86.8897 1.13067 86.9631 1.16C87.0437 1.18933 87.1171 1.237 87.1831 1.303C87.2491 1.369 87.3114 1.457 87.3701 1.567L92.1221 10.4ZM105.326 15.504C105.326 15.2767 105.367 15.0603 105.447 14.855C105.535 14.6497 105.653 14.4737 105.799 14.327C105.953 14.1803 106.133 14.063 106.338 13.975C106.544 13.887 106.764 13.843 106.998 13.843C107.226 13.843 107.442 13.887 107.647 13.975C107.853 14.063 108.029 14.1803 108.175 14.327C108.322 14.4737 108.439 14.6497 108.527 14.855C108.615 15.0603 108.659 15.2767 108.659 15.504C108.659 15.7387 108.615 15.9587 108.527 16.164C108.439 16.362 108.322 16.5343 108.175 16.681C108.029 16.8277 107.853 16.9413 107.647 17.022C107.442 17.11 107.226 17.154 106.998 17.154C106.764 17.154 106.544 17.11 106.338 17.022C106.133 16.9413 105.953 16.8277 105.799 16.681C105.653 16.5343 105.535 16.362 105.447 16.164C105.367 15.9587 105.326 15.7387 105.326 15.504Z" fill="#D32121"/>
</svg>
